<svg width="76" height="90" viewBox="0 0 76 90" fill="none" xmlns="http://www.w3.org/2000/svg">
<path d="M75.054 16.265C75.034 15.981 74.949 15.705 74.742 15.491L74.726 15.475C74.726 15.474 74.725 15.474 74.725 15.474L60.186 0.38C60.183 0.377 60.178 0.377 60.175 0.374C60.158 0.357 60.132 0.357 60.115 0.34C59.91 0.154 59.662 0.0629999 59.394 0.0409999C59.354 0.0379999 59.331 0 59.292 0H17.617C16.93 0 16.375 0.556 16.375 1.241V17.798H2.15201C1.46601 17.798 0.911011 18.354 0.911011 19.04V88.758C0.911011 89.444 1.46601 90 2.15201 90H58.383C59.069 90 59.624 89.444 59.624 88.758V72.201H73.848C74.534 72.201 75.09 71.645 75.09 70.96V16.352C75.09 16.318 75.056 16.298 75.054 16.265ZM60.533 4.32L70.928 15.11H60.533V4.32ZM57.141 87.517H3.39301V20.282H41.467V34.15C41.467 34.836 42.022 35.391 42.708 35.391H57.14V87.517H57.141ZM55.307 32.909H43.95V21.961L55.307 32.909ZM59.624 69.718V34.15C59.624 33.813 59.487 33.49 59.245 33.256L43.571 18.146C43.34 17.923 43.03 17.798 42.709 17.798H18.859V2.483H58.051V16.352C58.051 17.038 58.606 17.593 59.292 17.593H72.607V69.718H59.624Z" fill="black"/>
</svg>
