<svg width="88" height="66" viewBox="0 0 88 66" fill="none" xmlns="http://www.w3.org/2000/svg">
<path d="M87.552 17.1C87.489 16.883 87.377 16.695 87.238 16.537C87.217 16.514 87.194 16.493 87.173 16.471C87.165 16.464 87.157 16.456 87.15 16.449C87.149 16.448 87.148 16.446 87.146 16.445C87.113 16.414 87.083 16.382 87.047 16.354C87.012 16.326 86.975 16.302 86.938 16.277C86.925 16.268 86.911 16.26 86.897 16.251C86.882 16.242 86.868 16.232 86.853 16.223C86.844 16.218 86.837 16.212 86.829 16.207C86.789 16.185 86.748 16.165 86.706 16.146C86.698 16.143 86.691 16.14 86.684 16.137C86.667 16.13 86.651 16.124 86.634 16.117C86.557 16.088 86.479 16.065 86.398 16.048C86.389 16.046 86.381 16.042 86.372 16.04L2.625 0.461001C2.576 0.452001 2.528 0.453 2.48 0.449C2.463 0.447 2.445 0.445001 2.428 0.444001C1.686 0.403001 1.015 0.913 0.875996 1.661C0.863996 1.724 0.863995 1.786 0.859995 1.849C0.859995 1.85 0.859995 1.851 0.859995 1.852C0.853995 1.946 0.857996 2.038 0.869996 2.128C0.870996 2.135 0.870995 2.142 0.871995 2.149C0.884995 2.236 0.904996 2.32 0.931996 2.403C0.935996 2.416 0.939995 2.43 0.944995 2.443C0.972995 2.521 1.008 2.595 1.049 2.667C1.055 2.679 1.059 2.691 1.066 2.703L15.052 26.395L8.78 47.808C8.73 47.883 8.68599 47.961 8.65099 48.044C8.64499 48.059 8.642 48.073 8.636 48.088C8.572 48.251 8.532 48.426 8.529 48.608C8.529 48.623 8.531 48.635 8.531 48.649C8.532 48.726 8.533 48.803 8.546 48.881C8.556 48.939 8.588 48.985 8.603 49.041C8.625 49.121 8.65 49.196 8.686 49.272C8.737 49.378 8.79999 49.469 8.87299 49.559C8.90499 49.599 8.918 49.648 8.955 49.685C8.971 49.702 8.99399 49.706 9.01099 49.723C9.10999 49.815 9.223 49.884 9.344 49.948C9.392 49.972 9.433 50.009 9.483 50.028C9.653 50.094 9.83499 50.135 10.025 50.135H10.026H10.027C10.108 50.135 10.19 50.128 10.271 50.114L26.982 47.341L35.782 64.392C35.794 64.426 35.818 64.455 35.833 64.491L35.871 64.563C35.89 64.599 35.919 64.625 35.94 64.661C35.994 64.748 36.029 64.844 36.103 64.921C36.398 65.232 36.794 65.389 37.192 65.389C37.246 65.389 37.297 65.365 37.35 65.359C37.444 65.35 37.538 65.335 37.63 65.306C37.693 65.287 37.752 65.267 37.812 65.239C37.838 65.227 37.866 65.222 37.892 65.21C38.005 65.151 38.104 65.077 38.195 64.996C38.204 64.988 38.215 64.986 38.223 64.978L86.993 18.73C87.489 18.368 87.735 17.724 87.552 17.1ZM37.62 61.414L25.028 37.017L80.529 20.725L37.62 61.414ZM17.497 24.638L5.323 4.015L76.347 17.227L17.497 24.638ZM17.818 27.621L67.843 21.321L22.457 34.645C22.456 34.645 22.455 34.645 22.454 34.645L22.439 34.65C22.392 34.664 22.351 34.686 22.306 34.704C22.302 34.706 22.297 34.708 22.293 34.71C22.276 34.716 22.261 34.722 22.245 34.729C22.222 34.74 22.197 34.746 22.173 34.757C22.171 34.758 22.169 34.76 22.167 34.761C22.105 34.794 22.048 34.835 21.992 34.875C21.967 34.893 21.939 34.907 21.915 34.926C21.895 34.942 21.88 34.961 21.862 34.978C21.833 35.003 21.796 35.012 21.767 35.04L13.183 43.446L17.818 27.621ZM14.475 46.378L22.453 38.566L25.537 44.542L14.475 46.378Z" fill="black"/>
</svg>
