<svg width="88" height="66" viewBox="0 0 88 66" fill="none" xmlns="http://www.w3.org/2000/svg">
<path d="M0.917656 17.1C0.980656 16.883 1.09266 16.695 1.23166 16.537C1.25266 16.514 1.27566 16.493 1.29666 16.471C1.30466 16.464 1.31266 16.456 1.31966 16.449C1.31966 16.449 1.32165 16.446 1.32365 16.445C1.35665 16.414 1.38666 16.382 1.42266 16.354C1.45766 16.326 1.49465 16.302 1.53165 16.277C1.54465 16.268 1.55865 16.26 1.57265 16.251C1.58765 16.242 1.60166 16.232 1.61666 16.223C1.62566 16.218 1.63266 16.212 1.64066 16.207C1.68066 16.185 1.72166 16.165 1.76366 16.146C1.77166 16.143 1.77866 16.14 1.78566 16.137C1.80266 16.13 1.81866 16.124 1.83566 16.117C1.91266 16.088 1.99066 16.065 2.07166 16.048C2.08066 16.046 2.08866 16.042 2.09766 16.04L85.8447 0.461008C85.8937 0.452008 85.9417 0.453007 85.9897 0.449007C86.0067 0.447007 86.0247 0.445008 86.0417 0.444008C86.7837 0.403008 87.4547 0.913007 87.5937 1.66101C87.6057 1.72401 87.6057 1.78601 87.6097 1.84901V1.85201C87.6157 1.94601 87.6117 2.03801 87.5997 2.12801C87.5987 2.13501 87.5987 2.14201 87.5977 2.14901C87.5847 2.23601 87.5647 2.32001 87.5377 2.40301C87.5337 2.41601 87.5297 2.43001 87.5247 2.44301C87.4967 2.52101 87.4617 2.59501 87.4207 2.66701C87.4147 2.67901 87.4107 2.69101 87.4037 2.70301L73.4177 26.395L79.6897 47.808C79.7397 47.883 79.7837 47.961 79.8187 48.044C79.8247 48.059 79.8277 48.073 79.8337 48.088C79.8977 48.251 79.9377 48.426 79.9407 48.608C79.9407 48.623 79.9387 48.635 79.9387 48.649C79.9377 48.726 79.9367 48.803 79.9237 48.881C79.9137 48.939 79.8817 48.985 79.8667 49.041C79.8447 49.121 79.8197 49.196 79.7837 49.272C79.7327 49.378 79.6697 49.469 79.5967 49.559C79.5647 49.599 79.5517 49.648 79.5147 49.685C79.4987 49.702 79.4757 49.706 79.4587 49.723C79.3597 49.815 79.2467 49.884 79.1257 49.948C79.0777 49.972 79.0367 50.009 78.9867 50.028C78.8167 50.094 78.6347 50.135 78.4447 50.135H78.4427C78.3617 50.135 78.2797 50.128 78.1987 50.114L61.4877 47.341L52.6877 64.392C52.6757 64.426 52.6517 64.455 52.6367 64.491L52.5987 64.563C52.5797 64.599 52.5507 64.625 52.5297 64.661C52.4757 64.748 52.4407 64.844 52.3667 64.921C52.0717 65.232 51.6757 65.389 51.2777 65.389C51.2237 65.389 51.1727 65.365 51.1197 65.359C51.0257 65.35 50.9317 65.335 50.8397 65.306C50.7767 65.287 50.7177 65.267 50.6577 65.239C50.6317 65.227 50.6037 65.222 50.5777 65.21C50.4647 65.151 50.3657 65.077 50.2747 64.996C50.2657 64.988 50.2547 64.986 50.2467 64.978L1.47666 18.73C0.980662 18.368 0.734656 17.724 0.917656 17.1ZM50.8497 61.414L63.4417 37.017L7.94066 20.725L50.8497 61.414ZM70.9727 24.638L83.1467 4.01501L12.1227 17.227L70.9727 24.638ZM70.6517 27.621L20.6267 21.321L66.0127 34.645H66.0157L66.0307 34.65C66.0777 34.664 66.1187 34.686 66.1637 34.704C66.1677 34.706 66.1727 34.708 66.1767 34.71C66.1937 34.716 66.2087 34.722 66.2247 34.729C66.2477 34.74 66.2727 34.746 66.2967 34.757C66.2987 34.758 66.3007 34.76 66.3027 34.761C66.3647 34.794 66.4217 34.835 66.4777 34.875C66.5027 34.893 66.5307 34.907 66.5547 34.926C66.5747 34.942 66.5897 34.961 66.6077 34.978C66.6367 35.003 66.6737 35.012 66.7027 35.04L75.2867 43.446L70.6517 27.621ZM73.9947 46.378L66.0167 38.566L62.9327 44.542L73.9947 46.378Z" fill="black"/>
</svg>
